<?xml version="1.0" encoding="UTF-8" standalone="no"?>
<!-- Created with Inkscape (http://www.inkscape.org/) -->

<svg
   width="100"
   height="100"
   viewBox="0 0 100 100"
   version="1.1"
   id="svg1"
   xmlns="http://www.w3.org/2000/svg"
   xmlns:svg="http://www.w3.org/2000/svg">
  <defs
     id="defs1" />
  <g
     id="layer1">
    <g
       id="g7"
       transform="matrix(0.31971086,0,0,0.31971086,38.129641,51.398767)">
      <path
         id="path6"
         style="fill:#000000;stroke:none;stroke-width:11.2865;stroke-dasharray:none"
         d="M 75.48455,142.26177 C 18.21324,98.515939 71.79377,55.796089 117.32078,30.919429 c 0,0 -5.83062,36.17551 11.20569,32.26317 17.03631,-3.91234 11.83967,-19.14054 17.39605,-49.3847 79.01588,85.04955 -22.23593,166.897861 -70.43797,128.463871 z m 27.06437,-303.02818 c 11.50343,32.48166 -2.8455,57.91145 -24.01171,73.470699 -24.63192,-13.455759 -46.00127,-21.648539 -64.53907,-25.710929 5.95744,6.57275 10.16861,14.776839 12.7793,23.740229 5.93441,20.3749 4.76752,44.94847 0.52734,67 -3.28409,17.0793002 -8.28219,32.49832 -14.02734,43.49024 h 23.0625 C 35.7475,21.308229 -36.502532,79.037739 15.45908,137.51875 25.34325,80.402659 59.8931,45.643419 116.11728,24.764839 l -2.28711,-62.84375 c 0,0 44.98649,16.09334 57.11329,1.41016 8.42539,-10.2015 10.57812,-33.8457 10.57812,-33.8457 h -65.57617 c 0,0 39.92472,-19.34558 43.7168,-46.537119 3.58567,-25.71147 -57.11329,-43.71484 -57.11329,-43.71484 z m -119.417972,44.67969 C -110.7426,-112.6588 -107.24796,21.223829 -107.24796,21.223829 H 1.6407201 c 5.61426,-8.95633 12.0955299,-26.2753498 15.7714799,-45.39258 4.03598,-20.98954 4.90547,-44.39299 -0.30468,-62.28125 -4.16516,-14.300429 -11.4671899,-24.899589 -24.5839899,-29.552739 -3.2342001,-0.16979 -6.3644001,-0.19456 -9.3925821,-0.084 z" />
      <ellipse
         style="fill:#ffffff;stroke:none;stroke-width:6.76115;stroke-dasharray:none"
         id="path4"
         cx="69.822021"
         cy="-26.263922"
         rx="20.628786"
         ry="26.863596" />
    </g>
  </g>
</svg>
